<?xml version="1.0" encoding="UTF-8" standalone="yes"?>
<!-- Created with sK1/UniConvertor (http://sk1project.org/) -->
<svg xmlns="http://www.w3.org/2000/svg" xmlns:xlink="http://www.w3.org/1999/xlink"
  width="270pt" height="270pt" viewBox="0 0 270 270"
  fill-rule="evenodd">
<g>
<g>
<path style="stroke:none; fill:#000000" d="M 87.3 24.7C 86.1 24.9 83.9 26.5 82.4 28.3C 80.2 30.9 79.9 32.1 80.3 35.8C 81.6 47.4 92.4 50.9 97.7 41.5C 100.8 36.1 100.7 30.1 97.7 27.2C 95.3 24.9 91 23.9 87.3 24.7z"/>
<path style="stroke:none; fill:#000000" d="M 126.4 134.1C 126.1 134.7 126.4 135.8 127.1 136.6C 128.9 138.3 131.5 136.8 130.7 134.6C 130 132.8 127.4 132.5 126.4 134.1z"/>
<path style="stroke:none; fill:#000000" d="M 94.3 200C 88.2 203.7 82.5 215.8 83.7 222.3C 84.9 228.5 91.9 229.8 97.6 224.8C 102.5 220.5 105 214.8 105 208C 105 198.7 101.2 195.8 94.3 200z"/>
</g>
</g>
</svg>