<?xml version="1.0" encoding="UTF-8" standalone="yes"?>
<!-- Created with sK1/UniConvertor (http://sk1project.org/) -->
<svg xmlns="http://www.w3.org/2000/svg" xmlns:xlink="http://www.w3.org/1999/xlink"
  width="270pt" height="270pt" viewBox="0 0 270 270"
  fill-rule="evenodd">
<g>
<g>
<path style="stroke:none; fill:#000000" d="M 87 25.1C 80.5 27.7 78.6 33.1 81.8 40.3C 84 45.2 86.3 47 90.5 47C 96 47 102 37 100.4 30.4C 99.7 27.6 94.7 24 91.5 24.1C 90.4 24.1 88.4 24.6 87 25.1z"/>
<path style="stroke:none; fill:#000000" d="M 126.4 134.1C 126.1 134.7 126.4 135.8 127.1 136.6C 128.9 138.3 131.5 136.8 130.7 134.6C 130 132.8 127.4 132.5 126.4 134.1z"/>
<path style="stroke:none; fill:#000000" d="M 90.9 202.9C 86.2 207.8 83 215 83 220.7C 83 223.7 87.2 228 90 228C 98.2 228 105.8 216.6 104.8 205.9C 104.2 200 102.7 198 98.7 198C 96.3 198 94.5 199.1 90.9 202.9z"/>
</g>
</g>
</svg>