<?xml version="1.0" encoding="UTF-8" standalone="yes"?>
<!-- Created with sK1/UniConvertor (http://sk1project.org/) -->
<svg xmlns="http://www.w3.org/2000/svg" xmlns:xlink="http://www.w3.org/1999/xlink"
  width="270pt" height="270pt" viewBox="0 0 270 270"
  fill-rule="evenodd">
<g>
<g>
<path style="stroke:none; fill:#000000" d="M 86.4 25.4C 80.6 27.9 79.4 36.6 84 43C 88.1 48.8 95 48.1 98.7 41.5C 100.9 37.6 101.6 31.8 100.4 28.5C 99.6 26.5 94.8 24 91.8 24C 90.5 24.1 88.1 24.7 86.4 25.4z"/>
<path style="stroke:none; fill:#000000" d="M 126.4 134.1C 126.1 134.7 126.4 135.8 127.2 136.6C 128.5 137.9 128.8 137.9 129.9 136.6C 130.6 135.8 130.9 134.6 130.5 134C 129.7 132.7 127.3 132.7 126.4 134.1z"/>
<path style="stroke:none; fill:#000000" d="M 93.2 200C 86.7 204 80.7 217.4 82.9 223.2C 85.1 229 92.4 229.3 97.8 223.7C 102 219.4 104 214.2 104 207.8C 104 198.6 100.1 195.8 93.2 200z"/>
</g>
</g>
</svg>