<?xml version="1.0" encoding="UTF-8" standalone="yes"?>
<!-- Created with sK1/UniConvertor (http://sk1project.org/) -->
<svg xmlns="http://www.w3.org/2000/svg" xmlns:xlink="http://www.w3.org/1999/xlink"
  width="270pt" height="270pt" viewBox="0 0 270 270"
  fill-rule="evenodd">
<g>
<g>
<path style="stroke:none; fill:#000000" d="M 86.8 25.5C 81.2 28.6 81 38.8 86.6 44.4C 93 50.8 101.9 44.5 102.3 33.3C 102.5 29.5 102.1 28.5 99.7 26.4C 96.5 23.6 91 23.3 86.8 25.5z"/>
<path style="stroke:none; fill:#000000" d="M 126.5 134C 126.1 134.7 126.2 135.6 126.8 136.2C 128.2 137.6 131.3 136.4 130.8 134.7C 130.2 133.1 127.4 132.6 126.5 134z"/>
<path style="stroke:none; fill:#000000" d="M 89 202.8C 81.4 210.7 78.9 220.9 83.5 225.5C 88.3 230.4 95.6 227.2 100.3 218.1C 105.1 208.5 103.5 198.8 97.1 198.2C 94.2 197.9 93.1 198.5 89 202.8z"/>
</g>
</g>
</svg>