<?xml version="1.0" encoding="UTF-8" standalone="yes"?>
<!-- Created with sK1/UniConvertor (http://sk1project.org/) -->
<svg xmlns="http://www.w3.org/2000/svg" xmlns:xlink="http://www.w3.org/1999/xlink"
  width="270pt" height="270pt" viewBox="0 0 270 270"
  fill-rule="evenodd">
<g>
<g>
<path style="stroke:none; fill:#000000" d="M 91.3 24.1C 87.2 25.3 84 29.4 84 33.4C 84 35.2 85 38.6 86.3 41C 88.8 46.1 92.4 48 96.7 46.4C 102.1 44.5 105.9 33.4 102.9 27.8C 102.1 26.2 96 22.7 94.8 23.1C 94.6 23.1 93.1 23.6 91.3 24.1z"/>
<path style="stroke:none; fill:#000000" d="M 127.1 132.9C 125.4 134 126.4 137 128.4 137C 130.6 137 131.4 135 129.9 133.4C 129 132.6 128 132.4 127.1 132.9z"/>
<path style="stroke:none; fill:#000000" d="M 89.9 200.3C 85.9 203 80.5 211.5 79.5 216.7C 78.2 224 83.3 229.3 89.6 227C 96.5 224.4 100.9 216.9 101 208C 101 198.5 96.9 195.6 89.9 200.3z"/>
</g>
</g>
</svg>