<?xml version="1.0" encoding="UTF-8" standalone="yes"?>
<!-- Created with sK1/UniConvertor (http://sk1project.org/) -->
<svg xmlns="http://www.w3.org/2000/svg" xmlns:xlink="http://www.w3.org/1999/xlink"
  width="270pt" height="270pt" viewBox="0 0 270 270"
  fill-rule="evenodd">
<g>
<g>
<path style="stroke:none; fill:#000000" d="M 91.3 24.6C 82.4 29 86.5 47 96.4 47C 101.5 47 105.2 41.8 105.8 34.1C 106.2 28.7 106 28.2 103 25.7C 99.4 22.6 96 22.3 91.3 24.6z"/>
<path style="stroke:none; fill:#000000" d="M 126.4 133.5C 125.7 135.3 126.7 137 128.5 137C 130.6 137 131.3 135.1 130 133.5C 128.4 131.6 127.1 131.6 126.4 133.5z"/>
<path style="stroke:none; fill:#000000" d="M 88.4 199.9C 79.5 205.3 74.2 219.6 79 224.8C 85.9 232.2 99 220.9 99 207.5C 99 198.7 95 195.9 88.4 199.9z"/>
</g>
</g>
</svg>