<?xml version="1.0" encoding="UTF-8" standalone="yes"?>
<!-- Created with sK1/UniConvertor (http://sk1project.org/) -->
<svg xmlns="http://www.w3.org/2000/svg" xmlns:xlink="http://www.w3.org/1999/xlink"
  width="270pt" height="270pt" viewBox="0 0 270 270"
  fill-rule="evenodd">
<g>
<g>
<path style="stroke:none; fill:#000000" d="M 92.3 25.4C 89.8 27.6 89.5 28.5 89.5 33.9C 89.6 40.6 91.6 44.5 96.3 46.8C 102 49.6 108.9 41.8 109 32.7C 109 24.3 98.8 19.8 92.3 25.4z"/>
<path style="stroke:none; fill:#000000" d="M 126.5 132.9C 125.6 134.5 126.8 136 129.1 136C 130.5 136 131 135.4 130.8 134.3C 130.4 132.3 127.5 131.4 126.5 132.9z"/>
<path style="stroke:none; fill:#000000" d="M 85.3 200C 78.1 204.3 72.6 216.1 75 221.9C 76.4 225.4 80.6 227.4 84.4 226.4C 93.8 224.1 100.2 206.5 94.2 199.7C 92.2 197.5 89.3 197.5 85.3 200z"/>
</g>
</g>
</svg>