<?xml version="1.0" encoding="UTF-8" standalone="yes"?>
<!-- Created with sK1/UniConvertor (http://sk1project.org/) -->
<svg xmlns="http://www.w3.org/2000/svg" xmlns:xlink="http://www.w3.org/1999/xlink"
  width="270pt" height="270pt" viewBox="0 0 270 270"
  fill-rule="evenodd">
<g>
<g>
<path style="stroke:none; fill:#000000" d="M 99 22.7C 93.3 24.9 91 31.2 93 38.6C 94.3 43.2 98.8 48 101.9 48C 106.6 48 111.9 39.9 112 32.8C 112 26.4 104.5 20.5 99 22.7z"/>
<path style="stroke:none; fill:#000000" d="M 126.5 133C 126.1 133.7 126.2 134.6 126.8 135.2C 128.2 136.6 131.3 135.4 130.8 133.7C 130.2 132.1 127.4 131.6 126.5 133z"/>
<path style="stroke:none; fill:#000000" d="M 79.8 201.7C 75.3 205.8 71 213.9 71 218.3C 71 219.9 72 222.1 73.5 223.5C 80.6 230.7 93.2 220.5 93.4 207.5C 93.5 197.6 87.4 195 79.8 201.7z"/>
</g>
</g>
</svg>