<?xml version="1.0" encoding="UTF-8" standalone="yes"?>
<!-- Created with sK1/UniConvertor (http://sk1project.org/) -->
<svg xmlns="http://www.w3.org/2000/svg" xmlns:xlink="http://www.w3.org/1999/xlink"
  width="270pt" height="270pt" viewBox="0 0 270 270"
  fill-rule="evenodd">
<g>
<g>
<path style="stroke:none; fill:#000000" d="M 99 24.8C 96.5 27.4 96 28.6 96 32.9C 96 41.9 99.9 48 105.6 48C 110.6 48 114.3 42.6 114.8 34.6C 115.2 29.2 114.9 28 112.9 25.6C 111.2 23.7 109.2 22.7 106.3 22.3C 102.6 21.8 101.8 22.1 99 24.8z"/>
<path style="stroke:none; fill:#000000" d="M 127 132C 125.7 132.8 125.7 133.1 127.2 134.7C 129.3 136.7 131.5 135.3 130.4 132.7C 129.7 130.8 129.1 130.6 127 132z"/>
<path style="stroke:none; fill:#000000" d="M 80.5 198.4C 73.9 201.4 68 210.3 68 217.4C 68 221.5 71.7 225 76 225C 86.1 225 94.5 206.4 87.5 199.5C 84.7 196.6 84.5 196.6 80.5 198.4z"/>
</g>
</g>
</svg>