<?xml version="1.0" encoding="UTF-8" standalone="yes"?>
<!-- Created with sK1/UniConvertor (http://sk1project.org/) -->
<svg xmlns="http://www.w3.org/2000/svg" xmlns:xlink="http://www.w3.org/1999/xlink"
  width="270pt" height="270pt" viewBox="0 0 270 270"
  fill-rule="evenodd">
<g>
<g>
<path style="stroke:none; fill:#000000" d="M 102.9 24.9C 100.4 27.5 100 28.6 100 33.5C 100 40 101.9 45.1 105.1 47.4C 108.5 49.7 111.3 49.4 114.2 46.2C 120.9 39.3 120.7 26.9 113.9 23.4C 109.6 21.2 106.2 21.7 102.9 24.9z"/>
<path style="stroke:none; fill:#000000" d="M 126.5 132C 126.1 132.7 126.2 133.6 126.8 134.2C 128.2 135.6 131.3 134.4 130.8 132.7C 130.2 131.1 127.4 130.6 126.5 132z"/>
<path style="stroke:none; fill:#000000" d="M 74.3 199C 70.1 201.5 65.2 208.3 64.4 212.6C 63.4 218 64.6 220.9 68.6 222.6C 77.2 226.2 86 217.6 86 205.7C 86 197.3 81.4 194.7 74.3 199z"/>
</g>
</g>
</svg>