<?xml version="1.0" encoding="UTF-8" standalone="yes"?>
<!-- Created with sK1/UniConvertor (http://sk1project.org/) -->
<svg xmlns="http://www.w3.org/2000/svg" xmlns:xlink="http://www.w3.org/1999/xlink"
  width="270pt" height="270pt" viewBox="0 0 270 270"
  fill-rule="evenodd">
<g>
<g>
<path style="stroke:none; fill:#000000" d="M 108.7 23.1C 106.1 24.6 104 30.1 104 35.3C 104 41 107.7 48.2 111.3 49.4C 118.9 52.1 126.1 37 121.8 27.5C 119.7 22.9 112.9 20.7 108.7 23.1z"/>
<path style="stroke:none; fill:#000000" d="M 127.1 131.4C 126.3 132.4 126.4 133.1 127.4 134C 129.1 135.3 131 134.6 131 132.5C 131 130.6 128.3 129.9 127.1 131.4z"/>
<path style="stroke:none; fill:#000000" d="M 71.5 197.2C 62.4 202.2 56.9 214.9 61.9 219.4C 65 222.2 70.9 222.5 74.8 220C 83.5 214.6 84.6 195.9 76.2 196C 74.7 196 72.6 196.6 71.5 197.2z"/>
</g>
</g>
</svg>