<?xml version="1.0" encoding="UTF-8" standalone="yes"?>
<!-- Created with sK1/UniConvertor (http://sk1project.org/) -->
<svg xmlns="http://www.w3.org/2000/svg" xmlns:xlink="http://www.w3.org/1999/xlink"
  width="270pt" height="270pt" viewBox="0 0 270 270"
  fill-rule="evenodd">
<g>
<g>
<path style="stroke:none; fill:#000000" d="M 113.9 23.5C 107.4 27 106.7 41.9 112.7 48.2C 116.2 51.8 119.5 51.8 123 48C 129.8 40.7 128.9 26.6 121.4 23.2C 118.2 21.7 117.1 21.7 113.9 23.5z"/>
<path style="stroke:none; fill:#000000" d="M 127 131.9C 127 133.4 127.6 134 129.1 134C 130.5 134 131 133.5 130.8 132.3C 130.3 129.7 127 129.4 127 131.9z"/>
<path style="stroke:none; fill:#000000" d="M 64.3 197.9C 57.1 203.1 53.5 212.3 56.9 216.4C 59.2 219.1 65.4 220.5 69 219C 74.8 216.6 78.8 208.3 77.5 201.4C 76.2 194.4 71 193.1 64.3 197.9z"/>
</g>
</g>
</svg>