<?xml version="1.0" encoding="UTF-8" standalone="yes"?>
<!-- Created with sK1/UniConvertor (http://sk1project.org/) -->
<svg xmlns="http://www.w3.org/2000/svg" xmlns:xlink="http://www.w3.org/1999/xlink"
  width="270pt" height="270pt" viewBox="0 0 270 270"
  fill-rule="evenodd">
<g>
<g>
<path style="stroke:none; fill:#000000" d="M 118.4 24.8C 112.3 29.7 111.4 42.7 116.7 49C 121 54.1 126.9 52.7 130.1 45.7C 132.2 41 132.6 32.1 130.9 28.7C 129.2 25.5 125.8 23 123 23C 121.6 23 119.5 23.8 118.4 24.8z"/>
<path style="stroke:none; fill:#000000" d="M 128.3 129.7C 126.5 130.3 126.7 132.7 128.5 133.4C 129.4 133.7 130.3 133.3 130.7 132.4C 131.4 130.6 130 129.1 128.3 129.7z"/>
<path style="stroke:none; fill:#000000" d="M 62.5 194.5C 58.3 196.4 56.7 197.9 53.6 202.4C 48.4 210.1 52 217 61.3 217C 70.6 217 77 202 70.5 195.5C 67.7 192.7 66.7 192.5 62.5 194.5z"/>
</g>
</g>
</svg>