<?xml version="1.0" encoding="UTF-8" standalone="yes"?>
<!-- Created with sK1/UniConvertor (http://sk1project.org/) -->
<svg xmlns="http://www.w3.org/2000/svg" xmlns:xlink="http://www.w3.org/1999/xlink"
  width="270pt" height="270pt" viewBox="0 0 270 270"
  fill-rule="evenodd">
<g>
<g>
<path style="stroke:none; fill:#000000" d="M 123 26.8C 119 30.9 117.5 37.1 118.9 43.9C 122.5 61.5 138.3 53.8 136.8 35.2C 136.4 30.5 135.8 29.2 133.1 26.8C 129.1 23.3 126.6 23.3 123 26.8z"/>
<path style="stroke:none; fill:#000000" d="M 127.4 130.1C 126.5 131.6 128.5 133.4 130.4 132.7C 131.3 132.3 131.7 131.4 131.4 130.5C 130.7 128.8 128.4 128.5 127.4 130.1z"/>
<path style="stroke:none; fill:#000000" d="M 58.8 192C 54.2 193.4 50.3 196.8 48 201.5C 46.1 205.4 46 206.3 47.2 208.7C 48.9 212.2 52.4 214 57.6 214C 63.9 214 68 208.6 68 200.5C 68 197 67.4 195.4 65.5 193.5C 62.9 190.8 62.8 190.8 58.8 192z"/>
</g>
</g>
</svg>