<?xml version="1.0" encoding="UTF-8" standalone="yes"?>
<!-- Created with sK1/UniConvertor (http://sk1project.org/) -->
<svg xmlns="http://www.w3.org/2000/svg" xmlns:xlink="http://www.w3.org/1999/xlink"
  width="270pt" height="270pt" viewBox="0 0 270 270"
  fill-rule="evenodd">
<g>
<g>
<path style="stroke:none; fill:#000000" d="M 128 28.8C 124.3 32.6 122.4 41.1 124 47.2C 128.1 62.5 142 56.6 142 39.5C 142 27.8 134.7 22.2 128 28.8z"/>
<path style="stroke:none; fill:#000000" d="M 128.3 129.6C 127.5 131.7 129.6 133.8 131.1 132.3C 132.4 131 131.6 128 130 128C 129.4 128 128.7 128.7 128.3 129.6z"/>
<path style="stroke:none; fill:#000000" d="M 51.5 190.4C 49.8 191.1 47 193.4 45.2 195.4C 40.4 200.9 41.1 206.4 47 209.5C 50.4 211.3 55.3 211.4 58.2 209.9C 62.9 207.4 64.6 196.3 60.9 191.6C 58.6 188.7 56.1 188.4 51.5 190.4z"/>
</g>
</g>
</svg>