<?xml version="1.0" encoding="UTF-8" standalone="yes"?>
<!-- Created with sK1/UniConvertor (http://sk1project.org/) -->
<svg xmlns="http://www.w3.org/2000/svg" xmlns:xlink="http://www.w3.org/1999/xlink"
  width="270pt" height="270pt" viewBox="0 0 270 270"
  fill-rule="evenodd">
<g>
<g>
<path style="stroke:none; fill:#000000" d="M 135.1 29.6C 129.7 33.4 127.2 46.4 130.6 53.5C 132.7 58 137.1 59.8 140.5 57.6C 148.4 52.4 149.5 33 142.1 29C 139.4 27.6 137.8 27.7 135.1 29.6z"/>
<path style="stroke:none; fill:#000000" d="M 128.5 129C 127.7 130.4 128.8 132 130.6 132C 131.4 132 132 131.1 132 130C 132 127.9 129.6 127.2 128.5 129z"/>
<path style="stroke:none; fill:#000000" d="M 45.3 187.9C 35.1 192.6 35.3 204.1 45.7 206.9C 53 209 58 204.3 58 195.5C 58 192 57.4 190.3 55.5 188.5C 52.6 185.5 50.8 185.4 45.3 187.9z"/>
</g>
</g>
</svg>