<?xml version="1.0" encoding="UTF-8" standalone="yes"?>
<!-- Created with sK1/UniConvertor (http://sk1project.org/) -->
<svg xmlns="http://www.w3.org/2000/svg" xmlns:xlink="http://www.w3.org/1999/xlink"
  width="270pt" height="270pt" viewBox="0 0 270 270"
  fill-rule="evenodd">
<g>
<g>
<path style="stroke:none; fill:#000000" d="M 139.3 33.9C 132 41.1 132.4 56.9 140 61C 144.6 63.5 150.2 58.2 152 49.6C 153.4 42.8 152.5 37.8 149.3 33.9C 146.2 30.2 143 30.2 139.3 33.9z"/>
<path style="stroke:none; fill:#000000" d="M 129.1 128.4C 128.2 129.4 128.3 130 129.5 131C 131.4 132.6 133.6 130.9 132.7 128.6C 131.9 126.6 130.6 126.6 129.1 128.4z"/>
<path style="stroke:none; fill:#000000" d="M 38.7 184.8C 37.2 185.8 35.3 187.5 34.5 188.6C 28.3 196.8 43.9 208.4 50.7 200.6C 53.8 197 53.9 189.4 50.9 185.6C 48.4 182.4 42.9 182.1 38.7 184.8z"/>
</g>
</g>
</svg>