<?xml version="1.0" encoding="UTF-8" standalone="yes"?>
<!-- Created with sK1/UniConvertor (http://sk1project.org/) -->
<svg xmlns="http://www.w3.org/2000/svg" xmlns:xlink="http://www.w3.org/1999/xlink"
  width="270pt" height="270pt" viewBox="0 0 270 270"
  fill-rule="evenodd">
<g>
<g>
<path style="stroke:none; fill:#000000" d="M 146.9 35.8C 142.1 38.3 139.5 44 139.5 52C 139.5 56.7 140.1 59.3 141.4 61.3C 147.2 69.9 157.4 61.8 157.5 48.5C 157.5 37.5 153.4 32.5 146.9 35.8z"/>
<path style="stroke:none; fill:#000000" d="M 129.4 128.1C 128.5 129.6 130.5 131.4 132.4 130.7C 133.3 130.3 133.7 129.4 133.4 128.5C 132.7 126.8 130.4 126.5 129.4 128.1z"/>
<path style="stroke:none; fill:#000000" d="M 33.8 180.6C 28.7 183.3 27.6 188.3 31.1 193.1C 35.1 198.8 42.3 200.7 46 197C 48.8 194.2 48.8 185.3 45.9 181.6C 43.5 178.6 38.3 178.1 33.8 180.6z"/>
</g>
</g>
</svg>