<?xml version="1.0" encoding="UTF-8" standalone="yes"?>
<!-- Created with sK1/UniConvertor (http://sk1project.org/) -->
<svg xmlns="http://www.w3.org/2000/svg" xmlns:xlink="http://www.w3.org/1999/xlink"
  width="270pt" height="270pt" viewBox="0 0 270 270"
  fill-rule="evenodd">
<g>
<g>
<path style="stroke:none; fill:#000000" d="M 152.3 39.6C 148.5 41.5 145.3 47.4 144.4 54.1C 143.6 60.3 146.7 67.6 150.5 68.6C 160.2 71 167.4 48.3 159.5 40.4C 156.7 37.6 156.5 37.6 152.3 39.6z"/>
<path style="stroke:none; fill:#000000" d="M 130.4 127.5C 129.7 129.3 130.7 131 132.6 131C 133.4 131 134 130 134 128.5C 134 125.8 131.3 125 130.4 127.5z"/>
<path style="stroke:none; fill:#000000" d="M 27.9 176.8C 25.1 179.3 24.8 180.1 25.4 183.2C 25.8 185.6 27.4 188 30.1 190.5C 33.4 193.5 34.8 194.1 37.8 193.8C 42.5 193.4 44.5 189.8 43.6 183.5C 42.2 174.4 34.3 171 27.9 176.8z"/>
</g>
</g>
</svg>