<?xml version="1.0" encoding="UTF-8" standalone="yes"?>
<!-- Created with sK1/UniConvertor (http://sk1project.org/) -->
<svg xmlns="http://www.w3.org/2000/svg" xmlns:xlink="http://www.w3.org/1999/xlink"
  width="270pt" height="270pt" viewBox="0 0 270 270"
  fill-rule="evenodd">
<g>
<g>
<path style="stroke:none; fill:#000000" d="M 156.2 44.6C 150 48.9 147.3 63.8 151.6 69.7C 156.2 75.8 163.4 72.5 166.6 62.7C 170.7 50.4 164.2 39 156.2 44.6z"/>
<path style="stroke:none; fill:#000000" d="M 131.4 126.5C 129.6 127.8 129.6 128 131.2 129.6C 133.1 131.5 135 130.7 135 128C 135 125.4 133.6 124.8 131.4 126.5z"/>
<path style="stroke:none; fill:#000000" d="M 24.2 170.6C 18.1 174.9 26.3 189.6 34.4 188.8C 40.4 188.2 41.5 178.2 36.3 171.9C 33.4 168.5 28 167.9 24.2 170.6z"/>
</g>
</g>
</svg>