<?xml version="1.0" encoding="UTF-8" standalone="yes"?>
<!-- Created with sK1/UniConvertor (http://sk1project.org/) -->
<svg xmlns="http://www.w3.org/2000/svg" xmlns:xlink="http://www.w3.org/1999/xlink"
  width="270pt" height="270pt" viewBox="0 0 270 270"
  fill-rule="evenodd">
<g>
<g>
<path style="stroke:none; fill:#000000" d="M 160.2 50.5C 153.6 56 151.9 71 157.4 75.7C 161 78.8 163.2 78.6 166.8 75C 170.5 71.3 172.4 66.1 172.4 59.3C 172.5 49.7 166.4 45.3 160.2 50.5z"/>
<path style="stroke:none; fill:#000000" d="M 132.6 125.9C 130.6 128.1 131.2 130 134 130C 136 130 137.2 127.8 136.4 125.5C 135.6 123.5 134.7 123.6 132.6 125.9z"/>
<path style="stroke:none; fill:#000000" d="M 22.8 163.2C 17.3 165.1 18 172.8 24.2 179.6C 27.2 182.8 29 184 31.1 184C 36.4 184 37.7 176.7 33.8 169C 31.1 163.9 27.1 161.7 22.8 163.2z"/>
</g>
</g>
</svg>