<?xml version="1.0" encoding="UTF-8" standalone="yes"?>
<!-- Created with sK1/UniConvertor (http://sk1project.org/) -->
<svg xmlns="http://www.w3.org/2000/svg" xmlns:xlink="http://www.w3.org/1999/xlink"
  width="270pt" height="270pt" viewBox="0 0 270 270"
  fill-rule="evenodd">
<g>
<g>
<path style="stroke:none; fill:#000000" d="M 165.6 55.1C 161.5 58.3 158.7 64.7 158.6 71.1C 158.3 88.5 174.9 85.4 176.7 67.6C 177.4 61.1 176.6 57.6 174 55C 171.4 52.4 168.9 52.5 165.6 55.1z"/>
<path style="stroke:none; fill:#000000" d="M 133.9 124.8C 131.3 127 131.8 130 134.8 130C 136.8 130 139 126.3 138.3 124.2C 137.7 122.5 136.6 122.7 133.9 124.8z"/>
<path style="stroke:none; fill:#000000" d="M 18.2 157.2C 15.6 159.8 16.8 165.5 21.4 171.8C 23.8 175.1 26.3 178.1 26.8 178.4C 28.4 179.4 30.6 178.1 32 175.5C 33.9 171.9 31.7 162.5 28 158.8C 25 155.8 20.3 155.1 18.2 157.2z"/>
</g>
</g>
</svg>