<?xml version="1.0" encoding="UTF-8" standalone="yes"?>
<!-- Created with sK1/UniConvertor (http://sk1project.org/) -->
<svg xmlns="http://www.w3.org/2000/svg" xmlns:xlink="http://www.w3.org/1999/xlink"
  width="270pt" height="270pt" viewBox="0 0 270 270"
  fill-rule="evenodd">
<g>
<g>
<path style="stroke:none; fill:#000000" d="M 169.6 61.1C 165.5 64.3 162.7 70.7 162.6 77C 162.5 84.3 164.7 88 169.3 88C 175.6 88 181 79.5 181 69.7C 181 60.4 175.6 56.3 169.6 61.1z"/>
<path style="stroke:none; fill:#000000" d="M 135.9 123.8C 133.7 125.7 132.9 127.2 133.3 128.3C 134.8 132.1 140.2 128.8 141.2 123.5C 141.7 120.6 139.4 120.7 135.9 123.8z"/>
<path style="stroke:none; fill:#000000" d="M 16 150.9C 15.5 152 15 153.7 15 154.6C 15 156.8 22.1 168.9 24.8 171.3C 26.7 173.1 26.8 173.1 28.4 170.8C 30.3 168.1 30.4 165.5 28.9 159.4C 26.8 151.1 18.8 145.8 16 150.9z"/>
</g>
</g>
</svg>