<?xml version="1.0" encoding="UTF-8" standalone="yes"?>
<!-- Created with sK1/UniConvertor (http://sk1project.org/) -->
<svg xmlns="http://www.w3.org/2000/svg" xmlns:xlink="http://www.w3.org/1999/xlink"
  width="270pt" height="270pt" viewBox="0 0 270 270"
  fill-rule="evenodd">
<g>
<g>
<path style="stroke:none; fill:#000000" d="M 172.6 68C 166.4 73.5 163.7 87.7 168 92C 176.5 100.5 189.7 80.9 183.5 69.1C 181 64.1 177.5 63.8 172.6 68z"/>
<path style="stroke:none; fill:#000000" d="M 138 122.8C 133.5 126.8 133 130 136.8 130C 139.4 130 146 122.5 146 119.6C 146 117.8 141.7 119.5 138 122.8z"/>
<path style="stroke:none; fill:#000000" d="M 15.2 143.2C 12.8 145.6 13.6 148.3 20.8 160.7C 22.8 164.2 24.8 167 25.2 167C 26.2 167 27.9 160.5 27.5 158.3C 27.3 157.3 26.8 154.8 26.5 152.7C 25.8 148.5 20.7 142 18.1 142C 17.2 142 15.9 142.5 15.2 143.2z"/>
</g>
</g>
</svg>