<?xml version="1.0" encoding="UTF-8" standalone="yes"?>
<!-- Created with sK1/UniConvertor (http://sk1project.org/) -->
<svg xmlns="http://www.w3.org/2000/svg" xmlns:xlink="http://www.w3.org/1999/xlink"
  width="270pt" height="270pt" viewBox="0 0 270 270"
  fill-rule="evenodd">
<g>
<g>
<path style="stroke:none; fill:#000000" d="M 175.6 75C 173 77.4 171.5 79.9 170 84.7C 167.6 92.5 167.5 94.9 169.6 97.8C 171.6 100.7 177.7 100.8 181.4 97.9C 187.2 93.3 190 81.5 186.7 75C 184.8 71.1 180.1 71.1 175.6 75z"/>
<path style="stroke:none; fill:#000000" d="M 142.1 120.5C 135.2 125.6 134 127.4 136.3 129.7C 137.8 131.2 138.3 131.1 142.1 128.5C 147.2 124.9 151.4 119.5 150.6 117.5C 149.8 115.2 148.8 115.6 142.1 120.5z"/>
<path style="stroke:none; fill:#000000" d="M 14.4 136.4C 13.8 137.9 18.1 147.1 23.1 155.4L 24.9 158.3L 25.5 155.7C 26.4 152.1 24.3 142.7 21.7 138.8C 19.2 135.2 15.4 133.9 14.4 136.4z"/>
</g>
</g>
</svg>