<?xml version="1.0" encoding="UTF-8" standalone="yes"?>
<!-- Created with sK1/UniConvertor (http://sk1project.org/) -->
<svg xmlns="http://www.w3.org/2000/svg" xmlns:xlink="http://www.w3.org/1999/xlink"
  width="270pt" height="270pt" viewBox="0 0 270 270"
  fill-rule="evenodd">
<g>
<g>
<path style="stroke:none; fill:#000000" d="M 181.4 79.4C 177.4 81.2 174.3 85.6 171.4 93.8C 168.4 102.3 168.4 103.6 171.5 105.6C 175.1 108 181.4 106.9 185.1 103.4C 191.3 97.4 193 83.9 188 79.8C 185.4 77.7 185.4 77.7 181.4 79.4z"/>
<path style="stroke:none; fill:#000000" d="M 149 117.1C 137.9 123.8 133.5 129.1 137.7 130.7C 141.5 132.2 156 121.6 156 117.4C 156 114.4 153.7 114.3 149 117.1z"/>
<path style="stroke:none; fill:#000000" d="M 16 128.9C 16 129.4 17.8 133.5 19.9 138.1C 23.5 145.8 23.9 146.2 23.9 143C 23.9 138.7 21.8 132.6 19.4 129.9C 17.6 127.9 16 127.4 16 128.9z"/>
</g>
</g>
</svg>