<?xml version="1.0" encoding="UTF-8" standalone="yes"?>
<!-- Created with sK1/UniConvertor (http://sk1project.org/) -->
<svg xmlns="http://www.w3.org/2000/svg" xmlns:xlink="http://www.w3.org/1999/xlink"
  width="270pt" height="270pt" viewBox="0 0 270 270"
  fill-rule="evenodd">
<g>
<g>
<path style="stroke:none; fill:#000000" d="M 185.5 101.2C 184.4 101.8 181 104.6 178 107.5C 171.1 114 168.7 115.5 161.9 117.9C 153.1 121 140.1 127.2 139.6 128.6C 139.3 129.4 139.3 130.7 139.7 131.6C 140.2 133 141.4 133.2 147.7 132.6C 151.8 132.3 158.3 130.9 162.3 129.6C 166.8 128.1 172.7 127.1 178.1 126.8C 184 126.5 187.6 125.8 189.4 124.7C 195.3 120.8 198.3 108.2 194.7 102.6C 192.8 99.8 189.1 99.2 185.5 101.2z"/>
</g>
</g>
</svg>