<?xml version="1.0" encoding="UTF-8" standalone="yes"?>
<!-- Created with sK1/UniConvertor (http://sk1project.org/) -->
<svg xmlns="http://www.w3.org/2000/svg" xmlns:xlink="http://www.w3.org/1999/xlink"
  width="270pt" height="270pt" viewBox="0 0 270 270"
  fill-rule="evenodd">
<g>
<g>
<path style="stroke:none; fill:#000000" d="M 38.7 70.1C 33.8 73.4 33 74.8 37.1 73.1C 40 71.9 45.9 67 44.5 67C 44 67 41.3 68.4 38.7 70.1z"/>
<path style="stroke:none; fill:#000000" d="M 131.4 141.3C 130.6 143.4 137.1 160.2 139.8 162.8C 142 165 142.3 165.1 143.7 163.7C 145.2 162.2 145.2 161.5 143.6 155.6C 141.3 147.4 136.8 140 134 140C 132.9 140 131.7 140.6 131.4 141.3z"/>
<path style="stroke:none; fill:#000000" d="M 146.2 178.3C 144.3 180.6 142 191.2 142 197.8C 142 203.1 142.4 204.5 144.5 206.5C 145.8 207.9 148 209 149.3 209C 152.8 209 158.4 202.4 159.9 196.5C 161.8 188.8 159.7 182.8 153.5 179C 149.7 176.7 147.7 176.5 146.2 178.3z"/>
</g>
</g>
</svg>