<?xml version="1.0" encoding="UTF-8" standalone="yes"?>
<!-- Created with sK1/UniConvertor (http://sk1project.org/) -->
<svg xmlns="http://www.w3.org/2000/svg" xmlns:xlink="http://www.w3.org/1999/xlink"
  width="270pt" height="270pt" viewBox="0 0 270 270"
  fill-rule="evenodd">
<g>
<g>
<path style="stroke:none; fill:#000000" d="M 42.7 63.1C 34 68.2 32.7 70 37.9 70C 40.9 70 50 64.5 50 62.7C 50 62.1 50.7 60.8 51.7 59.8C 54.3 56.9 52.1 57.7 42.7 63.1z"/>
<path style="stroke:none; fill:#000000" d="M 130.8 141.2C 130 143.1 135.3 158.7 137.3 160.7C 141.7 165.2 142 153.9 137.7 145C 135.5 140.5 131.8 138.5 130.8 141.2z"/>
<path style="stroke:none; fill:#000000" d="M 143.3 182.8C 140.9 184.3 137.7 193.5 137.2 200C 136.9 205.6 137.1 206.9 139 209.2C 144.3 215.9 153.3 209.7 155.5 197.9C 157.3 188.5 149.5 178.9 143.3 182.8z"/>
</g>
</g>
</svg>