<?xml version="1.0" encoding="UTF-8" standalone="yes"?>
<!-- Created with sK1/UniConvertor (http://sk1project.org/) -->
<svg xmlns="http://www.w3.org/2000/svg" xmlns:xlink="http://www.w3.org/1999/xlink"
  width="270pt" height="270pt" viewBox="0 0 270 270"
  fill-rule="evenodd">
<g>
<g>
<path style="stroke:none; fill:#000000" d="M 47.3 56.3C 41.6 59.1 37 61.9 37 62.5C 37 68.1 49.5 66.4 53.7 60.2C 56.7 55.7 59 51 58.3 51.1C 57.8 51.1 52.9 53.5 47.3 56.3z"/>
<path style="stroke:none; fill:#000000" d="M 131 140C 129.9 140.7 129.9 141.8 130.9 146.7C 132.6 154 134.6 158 136.7 158C 138.1 158 138.2 157.1 137.7 151.7C 136.8 142.2 134.4 137.9 131 140z"/>
<path style="stroke:none; fill:#000000" d="M 140.1 186.3C 134.6 189.1 130.2 204.3 133 211C 135.6 217.3 142.8 216.1 147.4 208.6C 150 204.5 150.5 202.7 150.5 197.3C 150.5 191.3 150.3 190.6 147.2 187.9C 143.5 184.6 143.4 184.6 140.1 186.3z"/>
</g>
</g>
</svg>