<?xml version="1.0" encoding="UTF-8" standalone="yes"?>
<!-- Created with sK1/UniConvertor (http://sk1project.org/) -->
<svg xmlns="http://www.w3.org/2000/svg" xmlns:xlink="http://www.w3.org/1999/xlink"
  width="270pt" height="270pt" viewBox="0 0 270 270"
  fill-rule="evenodd">
<g>
<g>
<path style="stroke:none; fill:#000000" d="M 51.3 50.7C 42.4 54.6 41 55.5 41 57.6C 41 61.2 45 63.4 49.4 62.1C 53.1 61.1 61.5 55.2 60.6 54.2C 60.3 53.9 60.5 53.1 61.1 52.4C 62.4 50.8 63.3 46 62.3 46.1C 61.8 46.1 56.9 48.2 51.3 50.7z"/>
<path style="stroke:none; fill:#000000" d="M 130.1 139.9C 129 140.6 129 141.7 130.1 146.4C 131.5 152.7 134.5 156.6 135.6 153.6C 136.5 151.2 135.3 142.1 133.9 140.4C 132.6 138.8 132 138.7 130.1 139.9z"/>
<path style="stroke:none; fill:#000000" d="M 137 188.8C 132 190.4 127 199.8 127 207.8C 127 212.1 127.5 213.6 129.5 215.5C 132.7 218.8 135.2 218.6 139.4 215C 149.2 206.4 147.3 185.6 137 188.8z"/>
</g>
</g>
</svg>