<?xml version="1.0" encoding="UTF-8" standalone="yes"?>
<!-- Created with sK1/UniConvertor (http://sk1project.org/) -->
<svg xmlns="http://www.w3.org/2000/svg" xmlns:xlink="http://www.w3.org/1999/xlink"
  width="270pt" height="270pt" viewBox="0 0 270 270"
  fill-rule="evenodd">
<g>
<g>
<path style="stroke:none; fill:#000000" d="M 56 45.7C 46 49.8 45 50.5 45 53.5C 45 60.9 56.2 60.6 63.5 53C 66.3 50.1 67.7 43 65.5 42.4C 65 42.3 60.7 43.8 56 45.7z"/>
<path style="stroke:none; fill:#000000" d="M 129 141.8C 129 146 131 151 132.6 151C 133.8 151 134 149.7 133.8 145.2C 133.5 140.2 133.2 139.5 131.3 139.2C 129.4 138.9 129 139.3 129 141.8z"/>
<path style="stroke:none; fill:#000000" d="M 129.5 193.2C 122.9 198.3 119.9 212 124.1 217.4C 129.8 224.7 141 214.4 141 201.7C 141 192.3 135.7 188.3 129.5 193.2z"/>
</g>
</g>
</svg>