<?xml version="1.0" encoding="UTF-8" standalone="yes"?>
<!-- Created with sK1/UniConvertor (http://sk1project.org/) -->
<svg xmlns="http://www.w3.org/2000/svg" xmlns:xlink="http://www.w3.org/1999/xlink"
  width="270pt" height="270pt" viewBox="0 0 270 270"
  fill-rule="evenodd">
<g>
<g>
<path style="stroke:none; fill:#000000" d="M 59.5 42.1C 51.1 45.2 49 46.9 49 50.5C 49 55.2 56 57.6 61.3 54.9C 65.3 52.8 71 46.7 71 44.4C 71 41.3 70 39 68.6 39.1C 68 39.1 63.9 40.5 59.5 42.1z"/>
<path style="stroke:none; fill:#000000" d="M 129 139C 128.1 139.6 128 140.8 128.7 143.6C 129.8 148.3 132.5 149.4 133.3 145.4C 134.2 140.4 132 137.1 129 139z"/>
<path style="stroke:none; fill:#000000" d="M 124.3 195.8C 120 199.7 117.9 204.5 117.3 211.1C 116.8 216.3 117 217.1 119.3 219.4C 120.7 220.8 122.8 222 124 222C 127.4 222 133.7 215.4 135.6 209.8C 139.7 197.3 132.4 188.2 124.3 195.8z"/>
</g>
</g>
</svg>