<?xml version="1.0" encoding="UTF-8" standalone="yes"?>
<!-- Created with sK1/UniConvertor (http://sk1project.org/) -->
<svg xmlns="http://www.w3.org/2000/svg" xmlns:xlink="http://www.w3.org/1999/xlink"
  width="270pt" height="270pt" viewBox="0 0 270 270"
  fill-rule="evenodd">
<g>
<g>
<path style="stroke:none; fill:#000000" d="M 62.5 39C 59.2 40.1 55.7 41.9 54.8 43.1C 49.9 49 56.4 55.7 64.4 53C 68.6 51.6 75 44.8 75 41.7C 75 36.7 71.9 36 62.5 39z"/>
<path style="stroke:none; fill:#000000" d="M 128.4 139.5C 127.5 141.8 128.9 146 130.5 146C 132.1 146 133.5 141.8 132.6 139.5C 132.3 138.7 131.4 138 130.5 138C 129.6 138 128.7 138.7 128.4 139.5z"/>
<path style="stroke:none; fill:#000000" d="M 122.3 195.6C 118.3 197.6 114.3 203.5 113 209.5C 110.5 220.7 117.3 226.8 125.1 220.3C 129.4 216.7 132 210.7 132 204.2C 132 199.9 131.5 198.5 129.5 196.5C 126.7 193.6 126.5 193.6 122.3 195.6z"/>
</g>
</g>
</svg>