<?xml version="1.0" encoding="UTF-8" standalone="yes"?>
<!-- Created with sK1/UniConvertor (http://sk1project.org/) -->
<svg xmlns="http://www.w3.org/2000/svg" xmlns:xlink="http://www.w3.org/1999/xlink"
  width="270pt" height="270pt" viewBox="0 0 270 270"
  fill-rule="evenodd">
<g>
<g>
<path style="stroke:none; fill:#000000" d="M 68 35.6C 61.1 37.5 58.2 39.4 57.4 42.4C 56.4 46.5 57.3 48.4 61.2 50.3C 64.4 51.9 65.6 52 68.4 51C 72.8 49.6 79 42.8 79 39.6C 79 37.5 75.7 33.9 74 34.1C 73.7 34.1 71 34.8 68 35.6z"/>
<path style="stroke:none; fill:#000000" d="M 127.6 138.9C 126.9 140 128 143.3 129.4 144.2C 131 145.3 132 144.1 132 140.9C 132 138.7 131.5 138 130.1 138C 129 138 127.9 138.4 127.6 138.9z"/>
<path style="stroke:none; fill:#000000" d="M 118.1 196.7C 111.8 199.8 106.6 211.4 108.4 218.4C 110.1 225.2 116.4 226 122.1 220C 128.4 213.4 130.1 202 125.5 197.5C 122.7 194.6 122.5 194.5 118.1 196.7z"/>
</g>
</g>
</svg>