<?xml version="1.0" encoding="UTF-8" standalone="yes"?>
<!-- Created with sK1/UniConvertor (http://sk1project.org/) -->
<svg xmlns="http://www.w3.org/2000/svg" xmlns:xlink="http://www.w3.org/1999/xlink"
  width="270pt" height="270pt" viewBox="0 0 270 270"
  fill-rule="evenodd">
<g>
<g>
<path style="stroke:none; fill:#000000" d="M 68 34.1C 63.7 35.8 61 39.1 61 42.5C 61 46.2 63.4 48.7 67.7 49.6C 76.2 51.3 86.6 38.8 80.4 34.3C 78.3 32.8 71.6 32.7 68 34.1z"/>
<path style="stroke:none; fill:#000000" d="M 128.3 137.7C 126.6 138.3 126.7 141.5 128.4 142.9C 129.4 143.8 130 143.7 130.9 142.6C 133.2 139.8 131.3 136.4 128.3 137.7z"/>
<path style="stroke:none; fill:#000000" d="M 115 197.1C 111.1 198.7 108.9 201.1 106.4 206.5C 101.8 216.2 104 225 110.9 225C 117.3 225 124 215.1 124 205.3C 124 200.9 123.6 199.8 121.4 198.1C 118.4 195.7 118.4 195.8 115 197.1z"/>
</g>
</g>
</svg>