<?xml version="1.0" encoding="UTF-8" standalone="yes"?>
<!-- Created with sK1/UniConvertor (http://sk1project.org/) -->
<svg xmlns="http://www.w3.org/2000/svg" xmlns:xlink="http://www.w3.org/1999/xlink"
  width="270pt" height="270pt" viewBox="0 0 270 270"
  fill-rule="evenodd">
<g>
<g>
<path style="stroke:none; fill:#000000" d="M 70.3 33.1C 62.6 36.9 62.2 44.5 69.6 47.6C 75.4 50 81.4 47.1 85 40.2C 88.7 32.9 79.6 28.5 70.3 33.1z"/>
<path style="stroke:none; fill:#000000" d="M 127.5 138C 126.7 139.2 127.8 143 128.9 143C 130.5 143 132 140.2 131.4 138.6C 130.7 136.8 128.5 136.5 127.5 138z"/>
<path style="stroke:none; fill:#000000" d="M 109.3 198.9C 104.9 201.6 101 208.8 100.3 215.4C 99.8 220.3 100 221.1 102.3 223.4C 105.5 226.6 107.7 226.7 112 223.7C 116.8 220.6 120.4 213 120.4 206.4C 120.4 197.8 116.1 194.8 109.3 198.9z"/>
</g>
</g>
</svg>