<?xml version="1.0" encoding="UTF-8" standalone="yes"?>
<!-- Created with sK1/UniConvertor (http://sk1project.org/) -->
<svg xmlns="http://www.w3.org/2000/svg" xmlns:xlink="http://www.w3.org/1999/xlink"
  width="270pt" height="270pt" viewBox="0 0 270 270"
  fill-rule="evenodd">
<g>
<g>
<path style="stroke:none; fill:#000000" d="M 73 31.9C 68.7 34.1 66.6 37.9 67.9 41.2C 69.1 44.4 72.1 46.9 75.6 47.6C 81.2 48.7 90 40 88.6 34.7C 87.5 30.1 79.2 28.6 73 31.9z"/>
<path style="stroke:none; fill:#000000" d="M 127 138.9C 127 141.5 128.7 142.5 130.5 141C 132.3 139.5 131.3 137 128.9 137C 127.7 137 127 137.7 127 138.9z"/>
<path style="stroke:none; fill:#000000" d="M 107 198.8C 101.8 201.6 97 210 97 216.5C 97 222.9 99 226 103.2 226C 110.2 226 117 216.5 117 206.7C 117 202.4 116.5 200.9 114.7 199.2C 111.9 196.5 111.4 196.5 107 198.8z"/>
</g>
</g>
</svg>