<?xml version="1.0" encoding="UTF-8" standalone="yes"?>
<!-- Created with sK1/UniConvertor (http://sk1project.org/) -->
<svg xmlns="http://www.w3.org/2000/svg" xmlns:xlink="http://www.w3.org/1999/xlink"
  width="270pt" height="270pt" viewBox="0 0 270 270"
  fill-rule="evenodd">
<g>
<g>
<path style="stroke:none; fill:#000000" d="M 75.3 31C 69.2 34.7 68.7 39.9 74.2 44.5C 78.2 47.9 82.1 47.7 86.4 44C 92.1 38.9 92.9 32.6 88.1 30.1C 85 28.4 78.8 28.8 75.3 31z"/>
<path style="stroke:none; fill:#000000" d="M 127.3 137.1C 125.7 138.7 126.8 141 129.2 141C 130.6 141 131.1 140.4 130.8 138.8C 130.4 136.3 128.9 135.5 127.3 137.1z"/>
<path style="stroke:none; fill:#000000" d="M 100.5 202.3C 97.4 205.3 95.7 208.1 94.6 212C 92.7 218.6 93.5 222.5 97.3 225.4C 99.8 227.3 100.2 227.3 103.4 225.8C 115.2 220.1 118.6 198 107.7 198C 105.5 198 103.6 199.2 100.5 202.3z"/>
</g>
</g>
</svg>