<?xml version="1.0" encoding="UTF-8" standalone="yes"?>
<!-- Created with sK1/UniConvertor (http://sk1project.org/) -->
<svg xmlns="http://www.w3.org/2000/svg" xmlns:xlink="http://www.w3.org/1999/xlink"
  width="270pt" height="270pt" viewBox="0 0 270 270"
  fill-rule="evenodd">
<g>
<g>
<path style="stroke:none; fill:#000000" d="M 78.3 29.4C 70.6 32.9 71.4 42.2 79.7 45.6C 82.7 46.9 83.5 46.9 86.3 45.5C 90.1 43.7 94 38.3 94 34.8C 94 33.4 93.1 31.5 92 30.5C 89.4 28.2 82.3 27.6 78.3 29.4z"/>
<path style="stroke:none; fill:#000000" d="M 126.6 136.9C 125.6 138.5 127.1 141.1 128.9 140.8C 131 140.4 131 136.6 128.8 136.2C 127.9 136 126.9 136.3 126.6 136.9z"/>
<path style="stroke:none; fill:#000000" d="M 99.9 200.3C 95.5 203.3 91 211.9 91 217.7C 91 221 91.6 222.7 93.5 224.5C 96.5 227.5 98.3 227.6 102.6 224.9C 110.7 219.9 114.8 204.9 109.4 199.6C 107.2 197.4 103.9 197.6 99.9 200.3z"/>
</g>
</g>
</svg>