<?xml version="1.0" encoding="UTF-8" standalone="yes"?>
<!-- Created with sK1/UniConvertor (http://sk1project.org/) -->
<svg xmlns="http://www.w3.org/2000/svg" xmlns:xlink="http://www.w3.org/1999/xlink"
  width="270pt" height="270pt" viewBox="0 0 270 270"
  fill-rule="evenodd">
<g>
<g>
<path style="stroke:none; fill:#000000" d="M 82.6 28C 78.3 29.3 75 32.9 75 36.3C 75 40.3 80.7 46 84.8 46C 92.9 46 99.6 32.5 93.2 29.1C 90.3 27.6 85.6 27.1 82.6 28z"/>
<path style="stroke:none; fill:#000000" d="M 126.4 137.1C 125.4 138.8 128.7 141.7 130.1 140.3C 130.8 139.6 131 138.4 130.7 137.6C 130 135.8 127.4 135.5 126.4 137.1z"/>
<path style="stroke:none; fill:#000000" d="M 98.4 199.9C 92.7 203.3 89 210.5 89 217.9C 89 225.7 94.2 229.1 100.3 225.2C 108.7 219.6 112.6 205.6 107.3 199.8C 105.2 197.5 102.3 197.5 98.4 199.9z"/>
</g>
</g>
</svg>