<?xml version="1.0" encoding="UTF-8" standalone="yes"?>
<!-- Created with sK1/UniConvertor (http://sk1project.org/) -->
<svg xmlns="http://www.w3.org/2000/svg" xmlns:xlink="http://www.w3.org/1999/xlink"
  width="270pt" height="270pt" viewBox="0 0 270 270"
  fill-rule="evenodd">
<g>
<g>
<path style="stroke:none; fill:#000000" d="M 83 27.7C 79.5 29 77 32.4 77 35.8C 77 40.3 82.4 46 86.8 46C 95.2 46 101.1 33 94.7 28.5C 92.6 27 86 26.6 83 27.7z"/>
<path style="stroke:none; fill:#000000" d="M 126.4 137.1C 126.1 137.7 126.4 138.8 127.1 139.6C 128.9 141.3 131.5 139.8 130.7 137.6C 130 135.8 127.4 135.5 126.4 137.1z"/>
<path style="stroke:none; fill:#000000" d="M 96.4 200.2C 90.5 204.8 87.1 211.3 87 217.8C 87 222.5 90.3 227 93.8 227C 97.4 227 102.5 222.6 105.3 217.1C 111.8 204.2 105.8 192.9 96.4 200.2z"/>
</g>
</g>
</svg>