<?xml version="1.0" encoding="UTF-8" standalone="yes"?>
<!-- Created with sK1/UniConvertor (http://sk1project.org/) -->
<svg xmlns="http://www.w3.org/2000/svg" xmlns:xlink="http://www.w3.org/1999/xlink"
  width="270pt" height="270pt" viewBox="0 0 270 270"
  fill-rule="evenodd">
<g>
<g>
<path style="stroke:none; fill:#000000" d="M 81.1 29.6C 77.3 32.8 77.1 36.3 80.3 41.1C 84.8 47.9 92.5 47.2 97 39.7C 99.7 35.4 99.5 32.4 96.5 29.5C 93 25.9 85.4 26 81.1 29.6z"/>
<path style="stroke:none; fill:#000000" d="M 127.1 135.9C 125.4 137 126.4 140 128.4 140C 130.6 140 131.4 138 129.9 136.4C 129 135.6 128 135.4 127.1 135.9z"/>
<path style="stroke:none; fill:#000000" d="M 94.3 200.9C 85 207.7 82.7 224.6 90.9 226.7C 100.4 229.1 111.3 208.8 104.9 200.6C 102.2 197.2 99.3 197.3 94.3 200.9z"/>
</g>
</g>
</svg>