<?xml version="1.0" encoding="UTF-8" standalone="yes"?>
<!-- Created with sK1/UniConvertor (http://sk1project.org/) -->
<svg xmlns="http://www.w3.org/2000/svg" xmlns:xlink="http://www.w3.org/1999/xlink"
  width="270pt" height="270pt" viewBox="0 0 270 270"
  fill-rule="evenodd">
<g>
<g>
<path style="stroke:none; fill:#000000" d="M 85.3 27.1C 81.5 28.2 79 31.4 79 35.1C 79 38.6 83 44.3 86.3 45.4C 94.8 48.4 103.7 34 96.9 28.3C 94.8 26.6 88.9 26 85.3 27.1z"/>
<path style="stroke:none; fill:#000000" d="M 127.1 135.9C 125.4 137 126.4 140 128.4 140C 130.6 140 131.4 138 129.9 136.4C 129 135.6 128 135.4 127.1 135.9z"/>
<path style="stroke:none; fill:#000000" d="M 94.4 200.2C 88.4 204.8 85.1 211.3 85 218.2C 85 222.1 85.5 223.2 87.6 224.9C 89.1 226.1 91 227 92 227C 95.3 227 100.4 222.5 103.2 217.1C 109.8 204.4 103.9 192.9 94.4 200.2z"/>
</g>
</g>
</svg>