<?xml version="1.0" encoding="UTF-8" standalone="yes"?>
<!-- Created with sK1/UniConvertor (http://sk1project.org/) -->
<svg xmlns="http://www.w3.org/2000/svg" xmlns:xlink="http://www.w3.org/1999/xlink"
  width="270pt" height="270pt" viewBox="0 0 270 270"
  fill-rule="evenodd">
<g>
<g>
<path style="stroke:none; fill:#000000" d="M 84.3 27.4C 79 29.8 77.8 33.7 80.7 39.7C 82.6 43.8 87.6 46.6 91.3 45.6C 94.4 44.9 98.8 39.5 99.6 35.3C 100.9 28.7 91.8 24 84.3 27.4z"/>
<path style="stroke:none; fill:#000000" d="M 127.1 135.9C 125.4 137 126.4 140 128.4 140C 130.6 140 131.4 138 129.9 136.4C 129 135.6 128 135.4 127.1 135.9z"/>
<path style="stroke:none; fill:#000000" d="M 94.3 200C 87.3 204.2 82.7 215.9 85.4 222.5C 89.1 231.2 100.2 226.1 104.6 213.8C 108.7 202.1 103.1 194.6 94.3 200z"/>
</g>
</g>
</svg>