<?xml version="1.0" encoding="UTF-8" standalone="no"?>
<svg
   xmlns:dc="http://purl.org/dc/elements/1.1/"
   xmlns:cc="http://creativecommons.org/ns#"
   xmlns:rdf="http://www.w3.org/1999/02/22-rdf-syntax-ns#"
   xmlns:svg="http://www.w3.org/2000/svg"
   xmlns="http://www.w3.org/2000/svg"
   xmlns:sodipodi="http://sodipodi.sourceforge.net/DTD/sodipodi-0.dtd"
   xmlns:inkscape="http://www.inkscape.org/namespaces/inkscape"
   inkscape:version="1.0 (4035a4fb49, 2020-05-01)"
   sodipodi:docname="sand.svg"
   id="svg8"
   version="1.1"
   viewBox="-50 -50 200 200"
   height="297mm"
   width="210mm">
  <defs
     id="defs2">
    <marker
       inkscape:isstock="true"
       style="overflow:visible"
       id="marker1345"
       refX="0.0"
       refY="0.0"
       orient="auto"
       inkscape:stockid="Arrow1Lstart">
      <path
         transform="scale(0.8) translate(12.5,0)"
         style="fill-rule:evenodd;stroke:#000000;stroke-width:1pt;stroke-opacity:1;fill:#000000;fill-opacity:1"
         d="M 0.0,0.0 L 5.0,-5.0 L -12.5,0.0 L 5.0,5.0 L 0.0,0.0 z "
         id="path1343" />
    </marker>
    <marker
       inkscape:isstock="true"
       style="overflow:visible"
       id="Arrow1Lstart"
       refX="0.0"
       refY="0.0"
       orient="auto"
       inkscape:stockid="Arrow1Lstart">
      <path
         transform="scale(0.8) translate(12.5,0)"
         style="fill-rule:evenodd;stroke:none;stroke-width:1pt;stroke-opacity:1;fill:#ffb9b8;fill-opacity:1"
         d="M 0.0,0.0 L 5.0,-5.0 L -12.5,0.0 L 5.0,5.0 L 0.0,0.0 z "
         id="path1073" />
    </marker>
  </defs>
  <sodipodi:namedview
     showguides="false"
     inkscape:window-maximized="1"
     inkscape:window-y="348"
     inkscape:window-x="1072"
     inkscape:window-height="1057"
     inkscape:window-width="1920"
     showgrid="false"
     inkscape:document-rotation="0"
     inkscape:current-layer="g948"
     inkscape:document-units="mm"
     inkscape:cy="147.7815"
     inkscape:cx="182.39247"
     inkscape:zoom="1.5740826"
     inkscape:pageshadow="2"
     inkscape:pageopacity="0.0"
     borderopacity="1.0"
     bordercolor="#666666"
     pagecolor="#ffffff"
     id="base" />
  <metadata
     id="metadata5">
    <rdf:RDF>
      <cc:Work
         rdf:about="">
        <dc:format>image/svg+xml</dc:format>
        <dc:type
           rdf:resource="http://purl.org/dc/dcmitype/StillImage" />
        <dc:title></dc:title>
      </cc:Work>
    </rdf:RDF>
  </metadata>
  <g
     id="layer1"
     inkscape:groupmode="layer"
     inkscape:label="Layer 1">
    <g
       style="stroke-width:1;stroke-miterlimit:4;stroke-dasharray:none"
       transform="matrix(1.9152289,0,0,1.9152289,-27.644899,-35.841112)"
       id="g948">
      <g
         transform="matrix(-1,0,0,1,81.142117,-0.54057943)"
         id="g986-5-9"
         style="stroke-width:0.99988048;stroke-miterlimit:4;stroke-dasharray:none;fill:#fff0a4;fill-opacity:1">
        <path
           transform="matrix(-0.13814711,0,0,0.13814711,66.707864,19.254328)"
           d="m 180.53516,188.82617 -0.0156,0.19531 c -0.13826,10.43141 -4.83776,18.01356 -10.05078,25.23633 -5.21302,7.22277 -11.65283,14.08585 -18.4082,20.82617 -13.51075,13.48066 -28.61152,26.85099 -35.30274,34.9629 -9.75264,11.82331 -16.955133,29.57031 -19.722654,44.81835 -1.383764,7.62403 -1.676088,14.62828 -1.144531,19.45313 0.15954,1.44793 0.09241,0.80277 0.367187,1.73828 26.686888,0.1447 60.526408,0.36119 92.759768,0.56641 0.0637,-4.1e-4 0.11975,4.1e-4 0.18359,0 32.22844,-0.20522 66.05866,-0.42171 92.74414,-0.56641 0.27493,-0.93571 0.20953,-0.28964 0.36914,-1.73828 0.53154,-4.82485 0.25289,-11.8291 -1.13086,-19.45313 -2.76752,-15.24804 -9.97,-32.99504 -19.72265,-44.81835 -6.69122,-8.11191 -21.80761,-21.48225 -35.31836,-34.9629 -6.75537,-6.74032 -13.19323,-13.6034 -18.40625,-20.82617 -5.21302,-7.22277 -9.91445,-14.80492 -10.05274,-25.23633 v -0.19531 z"
           style="fill:#fff0a4;fill-opacity:1;stroke:none;stroke-width:7.23779517;stroke-linecap:butt;stroke-linejoin:miter;stroke-miterlimit:4;stroke-dasharray:none;stroke-opacity:1"
           id="path895-6-5" />
      </g>
    </g>
  </g>
</svg>
